<?xml version="1.0" encoding="UTF-8" standalone="no"?>
<svg
   xmlns:dc="http://purl.org/dc/elements/1.1/"
   xmlns:cc="http://creativecommons.org/ns#"
   xmlns:rdf="http://www.w3.org/1999/02/22-rdf-syntax-ns#"
   xmlns:svg="http://www.w3.org/2000/svg"
   xmlns="http://www.w3.org/2000/svg"
   version="1.1"
   id="svg2"
   xml:space="preserve"
   width="147.8"
   height="147.8"
   viewBox="0 0 147.8 147.8">
  <style
   id="style1035"></style>


  
  <metadata
   id="metadata8">
    <rdf:RDF>
      <cc:Work
   rdf:about="">
        <dc:format>image/svg+xml</dc:format>


        <dc:type
   rdf:resource="http://purl.org/dc/dcmitype/StillImage" />


        <dc:title></dc:title>


      </cc:Work>


    </rdf:RDF>


  </metadata>


  <defs
   id="defs6">
    <clipPath
   clipPathUnits="userSpaceOnUse"
   id="clipPath18">
      <path
   d="M 0,500 H 500 V 0 H 0 Z"
   id="path16" />


    </clipPath>


    <clipPath
   clipPathUnits="userSpaceOnUse"
   id="clipPath314">
      <path
   d="M 0,500 H 500 V 0 H 0 Z"
   id="path312" />


    </clipPath>


  </defs>


  <g
   transform="translate(-49.6,-262)"
   id="g1546">
    <path
   d="m 114.4,262 h -7.7 v 12.1 h 7.7 z"
   style="opacity:1;fill:#42394a;fill-opacity:1;fill-rule:nonzero;stroke:none;stroke-width:1.333;stop-opacity:1"
   id="path104" />


    <path
   d="m 140.4,262 h -7.7 v 12.1 h 7.7 z"
   style="opacity:1;fill:#42394a;fill-opacity:1;fill-rule:nonzero;stroke:none;stroke-width:1.333;stop-opacity:1"
   id="path106" />


    <path
   d="m 100.6,262 h -7.69 v 12.1 h 7.69 z"
   style="opacity:1;fill:#42394a;fill-opacity:1;fill-rule:nonzero;stroke:none;stroke-width:1.333;stop-opacity:1"
   id="path108" />


    <path
   d="m 154.1,262 h -7.6 v 12.1 h 7.6 z"
   style="opacity:1;fill:#42394a;fill-opacity:1;fill-rule:nonzero;stroke:none;stroke-width:1.333;stop-opacity:1"
   id="path110" />


    <path
   d="m 86.83,262 h -7.69 v 12.1 h 7.69 z"
   style="opacity:1;fill:#42394a;fill-opacity:1;fill-rule:nonzero;stroke:none;stroke-width:1.333;stop-opacity:1"
   id="path112" />


    <path
   d="m 168,262 h -7.8 v 12.1 h 7.8 z"
   style="opacity:1;fill:#42394a;fill-opacity:1;fill-rule:nonzero;stroke:none;stroke-width:1.333;stop-opacity:1"
   id="path114" />


    <path
   d="m 127.4,262 h -7.7 v 12.1 h 7.7 z"
   style="opacity:1;fill:#42394a;fill-opacity:1;fill-rule:nonzero;stroke:none;stroke-width:1.333;stop-opacity:1"
   id="path116" />


    <path
   d="m 106.7,409.8 h 7.7 v -12.2 h -7.7 z"
   style="opacity:1;fill:#42394a;fill-opacity:1;fill-rule:nonzero;stroke:none;stroke-width:1.333;stop-opacity:1"
   id="path118" />


    <path
   d="m 132.7,409.8 h 7.7 v -12.2 h -7.7 z"
   style="opacity:1;fill:#42394a;fill-opacity:1;fill-rule:nonzero;stroke:none;stroke-width:1.333;stop-opacity:1"
   id="path120" />


    <path
   d="m 92.91,409.8 h 7.69 v -12.2 h -7.69 z"
   style="opacity:1;fill:#42394a;fill-opacity:1;fill-rule:nonzero;stroke:none;stroke-width:1.333;stop-opacity:1"
   id="path122" />


    <path
   d="m 146.5,409.8 h 7.6 v -12.2 h -7.6 z"
   style="opacity:1;fill:#42394a;fill-opacity:1;fill-rule:nonzero;stroke:none;stroke-width:1.333;stop-opacity:1"
   id="path124" />


    <path
   d="m 79.14,409.8 h 7.69 v -12.2 h -7.69 z"
   style="opacity:1;fill:#42394a;fill-opacity:1;fill-rule:nonzero;stroke:none;stroke-width:1.333;stop-opacity:1"
   id="path126" />


    <path
   d="m 160.2,409.8 h 7.8 v -12.2 h -7.8 z"
   style="opacity:1;fill:#42394a;fill-opacity:1;fill-rule:nonzero;stroke:none;stroke-width:1.333;stop-opacity:1"
   id="path128" />


    <path
   d="m 119.7,409.8 h 7.7 v -12.2 h -7.7 z"
   style="opacity:1;fill:#42394a;fill-opacity:1;fill-rule:nonzero;stroke:none;stroke-width:1.333;stop-opacity:1"
   id="path130" />


    <path
   d="m 185.3,326.8 h 12.1 v -7.7 h -12.1 z"
   style="opacity:1;fill:#42394a;fill-opacity:1;fill-rule:nonzero;stroke:none;stroke-width:1.333;stop-opacity:1"
   id="path132" />


    <path
   d="m 185.3,352.8 h 12.1 V 345 h -12.1 z"
   style="opacity:1;fill:#42394a;fill-opacity:1;fill-rule:nonzero;stroke:none;stroke-width:1.333;stop-opacity:1"
   id="path134" />


    <path
   d="m 185.3,312.9 h 12.1 v -7.6 h -12.1 z"
   style="opacity:1;fill:#42394a;fill-opacity:1;fill-rule:nonzero;stroke:none;stroke-width:1.333;stop-opacity:1"
   id="path136" />


    <path
   d="m 185.3,366.5 h 12.1 v -7.7 h -12.1 z"
   style="opacity:1;fill:#42394a;fill-opacity:1;fill-rule:nonzero;stroke:none;stroke-width:1.333;stop-opacity:1"
   id="path138" />


    <path
   d="m 185.3,299.2 h 12.1 v -7.7 h -12.1 z"
   style="opacity:1;fill:#42394a;fill-opacity:1;fill-rule:nonzero;stroke:none;stroke-width:1.333;stop-opacity:1"
   id="path140" />


    <path
   d="m 185.3,380.2 h 12.1 v -7.7 h -12.1 z"
   style="opacity:1;fill:#42394a;fill-opacity:1;fill-rule:nonzero;stroke:none;stroke-width:1.333;stop-opacity:1"
   id="path142" />


    <path
   d="m 185.3,339.7 h 12.1 V 332 h -12.1 z"
   style="opacity:1;fill:#42394a;fill-opacity:1;fill-rule:nonzero;stroke:none;stroke-width:1.333;stop-opacity:1"
   id="path144" />


    <path
   d="m 49.6,326.8 h 12.18 v -7.7 H 49.6 Z"
   style="opacity:1;fill:#42394a;fill-opacity:1;fill-rule:nonzero;stroke:none;stroke-width:1.333;stop-opacity:1"
   id="path146" />


    <path
   d="M 49.6,352.8 H 61.78 V 345 H 49.6 Z"
   style="opacity:1;fill:#42394a;fill-opacity:1;fill-rule:nonzero;stroke:none;stroke-width:1.333;stop-opacity:1"
   id="path148" />


    <path
   d="m 49.6,312.9 h 12.18 v -7.6 H 49.6 Z"
   style="opacity:1;fill:#42394a;fill-opacity:1;fill-rule:nonzero;stroke:none;stroke-width:1.333;stop-opacity:1"
   id="path150" />


    <path
   d="m 49.6,366.5 h 12.18 v -7.7 H 49.6 Z"
   style="opacity:1;fill:#42394a;fill-opacity:1;fill-rule:nonzero;stroke:none;stroke-width:1.333;stop-opacity:1"
   id="path152" />


    <path
   d="m 49.6,299.2 h 12.18 v -7.7 H 49.6 Z"
   style="opacity:1;fill:#42394a;fill-opacity:1;fill-rule:nonzero;stroke:none;stroke-width:1.333;stop-opacity:1"
   id="path154" />


    <path
   d="m 49.6,380.2 h 12.18 v -7.7 H 49.6 Z"
   style="opacity:1;fill:#42394a;fill-opacity:1;fill-rule:nonzero;stroke:none;stroke-width:1.333;stop-opacity:1"
   id="path156" />


    <path
   d="M 49.6,339.7 H 61.78 V 332 H 49.6 Z"
   style="opacity:1;fill:#42394a;fill-opacity:1;fill-rule:nonzero;stroke:none;stroke-width:1.333;stop-opacity:1"
   id="path158" />


    <g
   style="opacity:1;stop-opacity:1"
   id="g160"
   transform="matrix(1.333,0,0,-1.333,170.1,386.6)">
      <path
   d="M 0,0 H -69.9 C -71.61,0 -73,1.392 -73,3.1 v 22.89 h 16.71 l 5.16,-6.01 c -0.38,-0.69 -0.62,-1.47 -0.62,-2.32 0,-2.65 2.16,-4.81 4.82,-4.81 2.65,0 4.81,2.16 4.81,4.81 0,2.66 -2.16,4.82 -4.81,4.82 -0.1,0 -0.16,0 -0.24,0 l -6.99,8.16 H -73 v 5.13 h 19.7 l 7.73,9.99 c 0.19,0 0.38,-0.1 0.58,-0.1 2.66,0 4.81,2.16 4.81,4.82 0,2.65 -2.15,4.81 -4.81,4.81 -2.66,0 -4.82,-2.16 -4.82,-4.81 0,-0.74 0.18,-1.44 0.48,-2.07 l -6.23,-8.06 H -73 v 5.13 h 5.6 c 0.88,-1.17 2.26,-1.94 3.84,-1.94 2.65,0 4.81,2.16 4.81,4.82 0,2.65 -2.16,4.81 -4.81,4.81 -2.05,0 -3.78,-1.28 -4.48,-3.07 H -73 V 73 c 0,1.71 1.39,3.1 3.1,3.1 H 0 c 1.709,0 3.099,-1.39 3.099,-3.1 V 42.16 H -13.31 l -5.15,6.01 c 0.38,0.69 0.61,1.47 0.61,2.32 0,2.65 -2.15,4.81 -4.81,4.81 -2.66,0 -4.82,-2.16 -4.82,-4.81 0,-2.66 2.16,-4.82 4.82,-4.82 0.1,0 0.15,0 0.23,0 l 7,-8.15 H 3.099 V 32.41 H -25.14 c -0.8,1.56 -2.4,2.65 -4.28,2.65 -2.66,0 -4.81,-2.16 -4.81,-4.82 0,-2.66 2.15,-4.81 4.81,-4.81 1.76,0 3.28,0.95 4.12,2.36 H 3.099 v -5.13 h -5.292 c -0.878,1.17 -2.263,1.94 -3.837,1.94 -2.659,0 -4.82,-2.16 -4.82,-4.82 0,-2.66 2.161,-4.81 4.82,-4.81 2.044,0 3.778,1.27 4.477,3.07 H 3.099 V 3.1 C 3.099,1.392 1.709,0 0,0 m 0,81.87 h -69.9 c -4.89,0 -8.88,-3.98 -8.88,-8.87 V 3.1 c 0,-4.895 3.99,-8.877 8.88,-8.877 H 0 c 4.895,0 8.876,3.982 8.876,8.877 V 73 c 0,4.89 -3.981,8.87 -8.876,8.87"
   style="fill:#42394a;fill-opacity:1;fill-rule:nonzero;stroke:none"
   id="path162" />


    </g>


  </g>


  

  

  

  

</svg>
