<?xml version="1.0" encoding="UTF-8" standalone="no"?>
<svg
   xmlns:dc="http://purl.org/dc/elements/1.1/"
   xmlns:cc="http://creativecommons.org/ns#"
   xmlns:rdf="http://www.w3.org/1999/02/22-rdf-syntax-ns#"
   xmlns:svg="http://www.w3.org/2000/svg"
   xmlns="http://www.w3.org/2000/svg"
   id="svg26"
   version="1.1"
   width="496pt"
   viewBox="0 0 496 496.09831"
   height="496pt">
  <style
     id="style844"></style>
  <metadata
     id="metadata32">
    <rdf:RDF>
      <cc:Work
         rdf:about="">
        <dc:format>image/svg+xml</dc:format>
        <dc:type
           rdf:resource="http://purl.org/dc/dcmitype/StillImage" />
        <dc:title></dc:title>
      </cc:Work>
    </rdf:RDF>
  </metadata>
  <defs
     id="defs30" />
  <path
     style="opacity:1;fill:#231f20;stop-opacity:1"
     d="m 248.14844,56 c 4.41797,0 8,-3.582031 8,-8 V 8 c 0,-4.417969 -3.58203,-8 -8,-8 -4.41797,0 -8,3.582031 -8,8 v 40 c 0,4.417969 3.58203,8 8,8 z m 0,0"
     id="path14" />
  <path
     style="opacity:1;fill:#231f20;stop-opacity:1"
     d="m 8.148438,256 h 40 c 4.417968,0 8,-3.58203 8,-8 0,-4.41797 -3.582032,-8 -8,-8 h -40 c -4.417969,0 -8,3.58203 -8,8 0,4.41797 3.582031,8 8,8 z m 0,0"
     id="path16" />
  <path
     style="opacity:1;fill:#231f20;stop-opacity:1"
     d="m 101.06641,112.23047 c 3.14062,3.03516 8.1289,2.98828 11.21484,-0.0977 3.08594,-3.08593 3.12891,-8.07422 0.0977,-11.21093 L 84.097656,72.640625 c -2.007812,-2.082031 -4.980468,-2.914063 -7.777344,-2.183594 -2.796874,0.734375 -4.980468,2.917969 -5.714843,5.714844 -0.730469,2.796875 0.101562,5.773437 2.183593,7.78125 z m 0,0"
     id="path18" />
  <path
     style="opacity:1;fill:#000000;stop-opacity:1;fill-opacity:1"
     d="m 493.80469,2.34375 c -3.125,-3.121094 -8.1875,-3.121094 -11.3125,0 L 372.35547,112.48047 C 299.83203,45.78125 187.61719,48.125 117.94531,117.79688 48.273438,187.46875 45.929688,299.68359 112.62891,372.20703 L 2.492188,482.34375 c -2.082032,2.00781 -2.914063,4.98437 -2.183594,7.78125 0.734375,2.79687 2.917968,4.98047 5.714844,5.71094 2.796874,0.73437 5.769531,-0.10157 7.78125,-2.17969 l 480.000002,-480 c 3.12109,-3.125 3.12109,-8.1875 0,-11.3125 z M 80.148438,248 C 80.085938,181.5 119.29297,121.23438 180.10937,94.339844 240.92969,67.445312 311.89453,78.996094 361.04297,123.79297 L 123.94141,360.89453 C 95.707031,330.08203 80.078125,289.78906 80.148438,248 Z m 0,0"
     id="path20" />
  <path
     style="opacity:1;fill:#000000;stop-opacity:1;fill-opacity:1"
     d="m 395.85687,139.25656 c -2.34375,-0.20703 -4.66015,0.64844 -6.30469,2.33594 l -244.9414,246.24609 c -1.65625,1.66406 -2.4961,3.97266 -2.30078,6.3125 0.19922,2.33985 1.41406,4.47656 3.32422,5.83985 73.33984,52.3164 173.77343,43.83984 237.30468,-20.03125 63.53516,-63.8711 71.48047,-164.34766 18.77344,-237.41016 -1.37109,-1.90234 -3.51172,-3.10937 -5.85547,-3.29297 z m 0,0"
     id="path22" />
</svg>
