<?xml version="1.0" encoding="UTF-8" standalone="no"?>
<svg
   xmlns:dc="http://purl.org/dc/elements/1.1/"
   xmlns:cc="http://creativecommons.org/ns#"
   xmlns:rdf="http://www.w3.org/1999/02/22-rdf-syntax-ns#"
   xmlns:svg="http://www.w3.org/2000/svg"
   xmlns="http://www.w3.org/2000/svg"
   xmlns:sodipodi="http://sodipodi.sourceforge.net/DTD/sodipodi-0.dtd"
   xmlns:inkscape="http://www.inkscape.org/namespaces/inkscape"
   viewBox="0 0 807.8 807.8"
   height="807.8"
   width="807.8"
   xml:space="preserve"
   id="svg2"
   version="1.1"
   sodipodi:docname="icon.svg"
   inkscape:version="1.0beta1 (32d4812, 2019-09-19)"
   inkscape:export-filename="/Users/dima/Desktop/128x128.png"
   inkscape:export-xdpi="15.21"
   inkscape:export-ydpi="15.21">
  <style
   id="style835"></style>

  <sodipodi:namedview
   pagecolor="#ffffff"
   bordercolor="#666666"
   inkscape:document-rotation="0"
   borderopacity="1"
   objecttolerance="10"
   gridtolerance="10"
   guidetolerance="10"
   inkscape:pageopacity="0"
   inkscape:pageshadow="2"
   inkscape:window-width="1600"
   inkscape:window-height="907"
   id="namedview910"
   showgrid="false"
   inkscape:zoom="0.35"
   inkscape:cx="400"
   inkscape:cy="560"
   inkscape:window-x="0"
   inkscape:window-y="23"
   inkscape:window-maximized="0"
   inkscape:current-layer="svg2" />

  <metadata
   id="metadata8">
    <rdf:RDF>
      <cc:Work
   rdf:about="">
        <dc:format>image/svg+xml</dc:format>

        <dc:type
   rdf:resource="http://purl.org/dc/dcmitype/StillImage" />

        <dc:title></dc:title>

      </cc:Work>

    </rdf:RDF>

  </metadata>

  <defs
   id="defs6" />

  <g
   id="g1074"
   transform="translate(-128,-75.91)">
    <path
   inkscape:connector-curvature="0"
   d="m 806.5,691.9 -6.7,48 -8.7,64 -6.2,45.8 c -1,6.7 -7.1,12.2 -13.8,12.2 H 295.3 c -6.7,0 -12.8,-5.5 -13.8,-12.2 l -6.2,-45.8 -8.7,-64 -6.5,-48 h 546.4"
   style="opacity:1;fill:#dd4a10;fill-opacity:1;fill-rule:nonzero;stroke:none;stroke-width:0.1333;stop-opacity:1"
   id="path124" />

    <path
   inkscape:connector-curvature="0"
   d="m 839.1,665.2 v 13.4 c 0,7.3 -6,13.3 -13.3,13.3 H 240.6 c -7.3,0 -13.3,-6 -13.3,-13.3 v -13.4 c 0,-7.3 6,-13.3 13.3,-13.3 h 585.2 c 7.3,0 13.3,6 13.3,13.3"
   style="opacity:1;fill:#e66912;fill-opacity:1;fill-rule:nonzero;stroke:none;stroke-width:0.1333;stop-opacity:1"
   id="path126" />

    <path
   inkscape:connector-curvature="0"
   d="m 467.7,861.9 c -5.3,0.5 -10.1,2.9 -13.7,6.5 -3.8,3.8 -6.4,9.3 -6.5,15.3 H 322.3 c -6,0 -10.9,-4.9 -10.9,-10.9 0,-3.1 1.2,-5.8 3.2,-7.7 2,-2 4.8,-3.2 7.7,-3.2 h 144 c 0.5,0 1,0 1.4,0"
   style="opacity:1;fill:#e66912;fill-opacity:1;fill-rule:nonzero;stroke:none;stroke-width:0.1333;stop-opacity:1"
   id="path128" />

    <path
   inkscape:connector-curvature="0"
   d="m 755,872.8 c 0,6 -4.9,10.9 -10.9,10.9 H 618.9 c -0.3,-11.5 -9.1,-20.8 -20.2,-21.7 0.4,-0.1 0.9,-0.1 1.4,-0.1 h 144 c 6,0 10.9,4.9 10.9,10.9"
   style="opacity:1;fill:#e66912;fill-opacity:1;fill-rule:nonzero;stroke:none;stroke-width:0.1333;stop-opacity:1"
   id="path130" />

    <path
   inkscape:connector-curvature="0"
   d="m 799.8,739.9 -8.7,64 H 275.3 l -8.7,-64 h 533.2"
   style="opacity:1;fill:#e66912;fill-opacity:1;fill-rule:nonzero;stroke:none;stroke-width:0.1333;stop-opacity:1"
   id="path132" />

    <path
   inkscape:connector-curvature="0"
   d="m 260.1,651.9 c 0,0 116.9,-20 275,-20 158.2,0 271.4,20 271.4,20 H 260.1"
   style="opacity:1;fill:#80503c;fill-opacity:1;fill-rule:nonzero;stroke:none;stroke-width:0.1333;stop-opacity:1"
   id="path134" />

    <path
   inkscape:connector-curvature="0"
   d="m 338.3,538.6 c 2.9,0 5.9,0.7 8.4,1.6 0,-0.5 0,-1.1 0,-1.6 0,-24.4 19.7,-44.1 44.1,-44.1 7,0 13.5,1.6 19.2,4.4 7.4,-29.6 34,-51.5 65.7,-51.5 37.5,0 67.8,30.3 67.8,67.6 v 0.1 c 0.2,0 0.5,-0.1 0.9,-0.1 18.7,0 33.7,15.2 33.7,33.9 0,18.8 -15,33.8 -33.7,33.8 H 338.3 c -12.1,0 -22.1,-9.8 -22.1,-22 0,-12.2 10,-22.1 22.1,-22.1"
   style="opacity:1;fill:#3bb84e;fill-opacity:1;fill-rule:nonzero;stroke:none;stroke-width:0.1333;stop-opacity:1"
   id="path136" />

    <path
   inkscape:connector-curvature="0"
   d="m 701.8,338.1 c 0,0 0,0.1 0,0.4 0,0.4 0,0.8 0,1.3 0,1.2 0,2.8 -0.1,4.8 -0.3,4 -0.9,9.8 -2.5,16.6 -1,3.3 -1.9,7 -3.4,10.8 -0.6,1.8 -1.6,3.8 -2.4,5.8 -0.9,1.9 -1.7,4 -2.9,5.9 -2.1,4 -4.7,8 -7.6,11.9 -1.6,1.8 -3.1,3.8 -4.8,5.7 l -2.5,2.7 -2.7,2.5 c -1.9,1.9 -3.9,3.3 -5.7,4.9 -2,1.6 -4.2,3 -6.2,4.4 -2.1,1.4 -4.1,2.7 -6.2,3.9 -2.2,1.1 -4.3,2.3 -6.4,3.3 -2.3,1 -4.4,1.9 -6.4,2.8 -2.2,0.7 -4.3,1.5 -6.3,2.2 -2,0.8 -4,1.2 -6,1.8 -0.9,0.3 -1.9,0.6 -2.8,0.8 -0.9,0.3 -1.9,0.4 -2.8,0.7 -1.9,0.4 -3.6,0.8 -5.2,1.1 -1.6,0.4 -3.2,0.5 -4.7,0.8 -1.4,0.2 -2.9,0.5 -4.1,0.6 -1.3,0.3 -2.5,0.3 -3.6,0.4 -4.3,0.6 -6.7,0.8 -6.7,0.8 -11.1,1.1 -21.3,-7 -22.3,-18.2 -1.2,-11.4 6.9,-21.4 18.2,-22.6 1.5,-0.1 3.1,-0.1 4.5,0 l 0.6,0.2 c 0,0 1.8,0.2 5.2,0.6 0.8,0 1.7,0.3 2.6,0.3 1,0.1 2,0.1 3.2,0.3 1.1,0 2.4,0.1 3.6,0.2 1.4,0 2.6,0 4,0 0.7,0 1.4,0 2.2,0 0.6,0 1.4,0 2.1,-0.1 1.5,0 3.1,0 4.5,-0.3 1.6,-0.1 3.2,-0.2 4.8,-0.5 1.6,-0.3 3.4,-0.5 5,-0.8 1.7,-0.4 3.3,-0.9 5,-1.3 1.6,-0.4 3.2,-1.1 5,-1.6 1.6,-0.7 3.3,-1.2 4.9,-2 1.6,-0.8 3.3,-1.5 4.8,-2.6 l 2.4,-1.3 2.3,-1.5 c 1.6,-1 2.9,-2.2 4.4,-3.3 2.8,-2.4 5.4,-4.8 7.8,-7.6 1.2,-1.2 2.3,-2.7 3.4,-4 1,-1.5 2.1,-2.8 2.9,-4.3 1.9,-2.8 3.5,-5.6 4.8,-8.2 2.7,-5.4 4.4,-10.3 5.5,-13.6 0.5,-1.8 0.8,-3.1 1,-3.9 0.2,-0.5 0.2,-0.8 0.3,-1.1 0,-0.1 0,-0.2 0,-0.2 0.1,-2.7 2.4,-4.5 4.9,-4.4 2.7,0.1 4.6,2.4 4.4,4.9"
   style="opacity:1;fill:#456d6f;fill-opacity:1;fill-rule:nonzero;stroke:none;stroke-width:0.1333;stop-opacity:1"
   id="path138" />

    <path
   inkscape:connector-curvature="0"
   d="m 815.5,324.7 c -2.9,0 -5.8,0.6 -8.4,1.7 0,-0.7 0,-1.2 0,-1.7 0,-24.4 -19.7,-44.2 -44.1,-44.2 -6.9,0 -13.5,1.6 -19.2,4.4 -7.3,-29.6 -34,-51.4 -65.7,-51.4 -37.5,0 -67.7,30.2 -67.7,67.7 v 0 c -0.3,0 -0.6,0 -1,0 -18.6,0 -33.7,15.1 -33.7,33.7 0,18.8 15.1,33.9 33.7,33.9 h 206.1 c 12.2,0 22,-9.9 22,-22 0,-12.3 -9.8,-22.1 -22,-22.1"
   style="opacity:1;fill:#71c83f;fill-opacity:1;fill-rule:nonzero;stroke:none;stroke-width:0.1333;stop-opacity:1"
   id="path140" />

    <path
   inkscape:connector-curvature="0"
   d="m 710.5,492.5 v 0.8 c 0,1 -0.1,2.2 -0.1,3.2 0,1.8 -0.2,3.8 -0.3,5.8 -0.4,4 -0.9,8 -1.9,12.2 -1.8,8.2 -5,16.8 -9.6,24.5 -4.5,7.7 -10.2,14.5 -16.2,20 -5.9,5.5 -11.9,9.7 -17.8,13.3 -11.4,7.1 -21.8,11.6 -31,15.6 -9.2,4 -17.4,7.4 -24.2,10.7 -6.9,3.3 -12.5,6.6 -16.7,9.8 -4.3,3.1 -7.2,6.2 -9.4,9 -2.1,2.8 -3.4,5.4 -4.5,8.4 -2.1,5.8 -3.1,12.8 -3.2,19.3 0,2.4 0,4.7 0.1,6.8 h -86.9 c 0.1,-4.1 0.4,-8.8 1.1,-14 0.6,-6.4 1.8,-13.6 4,-21.7 2.1,-8 5.2,-16.9 9.8,-26.1 4.7,-9.2 11.1,-18.7 19.1,-27.1 8,-8.5 17.5,-15.7 27.2,-21.5 19.3,-11.6 39.5,-17.6 56.5,-23.4 8.4,-2.8 16.1,-5.6 22,-8.6 2.8,-1.3 5.2,-2.8 6.9,-4 1.8,-1.2 2.8,-2.2 3.8,-3.3 0.9,-1.1 1.7,-2.4 2.5,-4.3 0.3,-0.9 0.7,-2.1 0.9,-3.4 0.2,-0.6 0.2,-1.4 0.3,-2 l 0.1,-0.8 v -0.2 l 0.2,-0.5 v -0.9 -0.6 0.3 -0.1 l 0.1,-0.6 c 0,-0.4 0,-0.6 0,-1 0,-0.7 0,-1.4 0,-2 0,-1.2 0,-2.3 -0.1,-3.4 -0.4,-2.1 -0.8,-3.7 -1.6,-5.6 -1,-1.7 -2.2,-3.6 -4.2,-5.6 -2,-2 -4.6,-4.1 -7.8,-6.1 -6.4,-4 -15,-7.6 -24,-10.5 -9.2,-3.1 -19.2,-5.5 -29.3,-7.7 -10.3,-2.2 -20.8,-4 -31.4,-5.9 -21.2,-3.6 -42.6,-6.9 -64,-11.6 -10.5,-2.3 -21.1,-4.8 -31.5,-8.1 -10.6,-3.5 -20.8,-7.5 -30.8,-13.1 -5.1,-2.8 -10,-6 -14.6,-9.9 -2.6,-2 -5,-4.4 -7.4,-6.8 -1.9,-2 -3.6,-4 -5.2,-6.1 -1.9,-2.5 -3.6,-5.1 -5.1,-7.7 l -1.1,-2 c -0.4,-0.7 -0.8,-1.6 -1.2,-2.3 -0.4,-0.9 -0.5,-1.3 -0.8,-1.9 l -0.2,-0.8 -0.3,-0.5 v -0.1 l -0.3,-0.6 c -1.8,-4.9 -3.4,-10 -4.5,-14.9 -2.1,-9.9 -2.5,-19.6 -1.9,-28.5 0.7,-8.9 2.6,-17.1 4.7,-24.4 4.4,-14.7 10.4,-26.1 15.9,-35.2 5.3,-8.9 10.4,-15.5 13.8,-19.9 2.2,-2.6 3.8,-4.5 4.8,-5.6 0.7,-0.8 1,-1.2 1.1,-1.2 4.7,-5.3 12.7,-5.8 18,-1.2 l 0.1,0.2 c 5.2,4.6 5.8,12.5 1.1,17.8 0,0 -1.5,1.9 -4,5.6 -2.5,4 -6.4,10 -10.3,17.9 -3.8,8 -7.8,18 -10.2,29.3 -2.4,11.5 -2.8,24.3 1,36.5 1.1,3.1 2.3,6.2 3.8,9.1 v 0.1 h 0.1 v 0.2 0 0 l 0.4,0.8 c 0.3,0.4 0.5,0.9 0.7,1 l 0.9,1.4 c 0.8,1.2 1.6,2.1 2.5,3.2 3.9,4.1 9.5,7.7 16.4,10.8 1.4,0.5 2.8,1 4.2,1.7 6,2.1 12.6,4 19.7,5.6 8.8,1.9 18.1,3.3 28,4.5 19.6,2.3 40.6,3.6 62.6,5.2 11,1 22.3,1.9 33.8,3.2 11.4,1.4 23.3,3.1 35.4,5.8 12.1,2.8 24.8,6.4 37.9,12.6 6.4,3.2 13,7.2 19.4,12.2 4.2,3.3 8.3,7.2 12,11.4 v 0 c 2,2.3 3.9,4.7 5.6,7.4 5.1,7.3 9,15.6 11.4,24 1.2,4.2 2.1,8.3 2.6,12.5 0.3,2 0.6,4 0.7,6 0.1,1 0.1,2 0.3,2.9 v 1.5 0.4 0.8 0.4 l 0.1,1 v 0.6"
   style="opacity:1;fill:#51898a;fill-opacity:1;fill-rule:nonzero;stroke:none;stroke-width:0.1333;stop-opacity:1"
   id="path142" />

    <path
   inkscape:connector-curvature="0"
   d="m 441,374.5 -44.4,17.3 c -1.9,-2 -3.6,-4 -5.2,-6.1 -1.9,-2.5 -3.6,-5.1 -5.1,-7.7 l -1.1,-2 c -0.4,-0.7 -0.8,-1.6 -1.2,-2.3 -0.4,-0.9 -0.5,-1.3 -0.8,-1.9 l -0.2,-0.8 -0.3,-0.5 v -0.1 l -0.3,-0.6 c -1.8,-4.9 -3.3,-10 -4.5,-14.9 -2.1,-9.9 -2.5,-19.6 -1.9,-28.5 0.7,-8.9 2.6,-17.1 4.7,-24.4 4.4,-14.7 10.4,-26.1 15.9,-35.2 5.4,-8.9 10.4,-15.5 13.8,-19.9 2.2,-2.6 3.9,-4.5 4.8,-5.6 l 19.2,-2.2 c 5.2,4.6 5.8,12.5 1.1,17.8 0,0 -1.5,1.9 -4,5.6 -2.5,4 -6.3,10 -10.3,17.9 -3.8,8 -7.8,18 -10.2,29.3 -2.4,11.5 -2.8,24.3 1,36.5 1.1,3.1 2.3,6.2 3.8,9.1 l 0.1,0.1 v 0 0.2 0 0 l 0.4,0.8 c 0.3,0.4 0.5,0.9 0.7,1 l 0.9,1.4 c 0.8,1.2 1.6,2.1 2.7,3.2 3.7,4.1 9.3,7.7 16.2,10.8 1.4,0.5 2.8,1 4.2,1.7"
   style="opacity:1;fill:#456d6f;fill-opacity:1;fill-rule:nonzero;stroke:none;stroke-width:0.1333;stop-opacity:1"
   id="path144" />

    <path
   inkscape:connector-curvature="0"
   d="m 650.5,248.8 c -3.3,0 -6.5,0.7 -9.5,1.9 0,-0.3 0,-0.6 0,-0.8 0,-28.4 -22.9,-51.3 -51.3,-51.3 -10,0 -19.3,2.9 -27.2,7.9 -6.8,-37.5 -39.6,-66.1 -79,-66.1 -8.7,0 -17.1,1.5 -24.9,4 -12.8,-39.7 -50.2,-68.49 -94.2,-68.49 -43.7,0 -80.7,28.39 -93.9,67.69 -7.1,-2 -14.6,-3.2 -22.3,-3.2 -44.4,0 -80.2,36 -80.2,80.4 0,4.1 0.2,8.3 0.9,12.3 -2.1,-0.4 -4.3,-0.7 -6.5,-0.7 -19,0 -34.4,15.3 -34.4,34.4 0,18.9 15.4,34.4 34.4,34.4 h 488.1 c 14.5,0 26.3,-11.7 26.3,-26.3 0,-14.4 -11.8,-26.1 -26.3,-26.1"
   style="opacity:1;fill:#3bb84e;fill-opacity:1;fill-rule:nonzero;stroke:none;stroke-width:0.1333;stop-opacity:1"
   id="path146" />

    <path
   inkscape:connector-curvature="0"
   d="m 556.1,243.3 c -2.9,0 -5.8,0.7 -8.4,1.8 0,-0.7 0,-1.2 0,-1.8 0,-24.4 -19.7,-44.1 -44.1,-44.1 -6.9,0 -13.5,1.6 -19.2,4.4 -7.3,-29.6 -34,-51.4 -65.7,-51.4 -37.5,0 -67.7,30.2 -67.7,67.7 v 0 c -0.3,0 -0.6,0 -1,0 -18.6,0 -33.8,15 -33.8,33.7 0,18.8 15.2,33.9 33.8,33.9 h 206.1 c 12.2,0 22,-9.9 22,-22 0,-12.3 -9.8,-22.2 -22,-22.2"
   style="opacity:1;fill:#71c83f;fill-opacity:1;fill-rule:nonzero;stroke:none;stroke-width:0.1333;stop-opacity:1"
   id="path148" />

    <path
   inkscape:connector-curvature="0"
   d="m 391.6,266.5 c -8.1,0 -15.7,2.6 -22,6.8 0.3,-2.2 0.4,-4.5 0.4,-6.8 0,-43 -34.9,-77.9 -77.9,-77.9 -43.1,0 -78,34.9 -78,77.9 0,11.8 2.5,23 7.3,33 -4.9,-5.1 -11.7,-8.3 -19.3,-8.3 -14.8,0 -26.7,12 -26.7,26.7 0,14.6 11.9,26.6 26.7,26.6 0.9,0 1.7,0 2.6,-0.1 v 0.1 h 186.9 c 21.6,0 39.1,-17.4 39.1,-38.9 0,-21.6 -17.5,-39.1 -39.1,-39.1"
   style="opacity:1;fill:#b8db29;fill-opacity:1;fill-rule:nonzero;stroke:none;stroke-width:0.1333;stop-opacity:1"
   id="path150" />

    <path
   inkscape:connector-curvature="0"
   d="m 751.3,351.8 c -4.2,0 -7.9,1.2 -11.1,3.5 0.1,-1.2 0.1,-2.3 0.1,-3.5 0,-21.7 -17.5,-39.3 -39.3,-39.3 -21.7,0 -39.3,17.6 -39.3,39.3 0,6 1.3,11.6 3.7,16.7 -2.4,-2.7 -5.8,-4.3 -9.7,-4.3 -7.5,0 -13.5,6 -13.5,13.5 0,7.5 6,13.5 13.5,13.5 0.4,0 0.9,0 1.3,-0.2 v 0.2 h 94.3 c 10.9,0 19.7,-8.8 19.7,-19.8 0,-10.8 -8.8,-19.6 -19.7,-19.6"
   style="opacity:1;fill:#b8db29;fill-opacity:1;fill-rule:nonzero;stroke:none;stroke-width:0.1333;stop-opacity:1"
   id="path152" />

    <path
   inkscape:connector-curvature="0"
   d="m 512.5,573.1 c -4.1,0 -8,1.2 -11,3.5 0,-1.2 0.1,-2.3 0.1,-3.5 0,-21.7 -17.6,-39.3 -39.3,-39.3 -21.7,0 -39.3,17.6 -39.3,39.3 0,6 1.3,11.6 3.6,16.7 -2.4,-2.7 -5.9,-4.3 -9.8,-4.3 -7.3,0 -13.3,6 -13.3,13.5 0,7.4 6,13.4 13.3,13.4 0.6,0 1,0 1.5,-0.1 v 0.1 h 94.2 c 10.8,0 19.6,-8.8 19.6,-19.7 0,-10.8 -8.8,-19.6 -19.6,-19.6"
   style="opacity:1;fill:#b8db29;fill-opacity:1;fill-rule:nonzero;stroke:none;stroke-width:0.1333;stop-opacity:1"
   id="path154" />

    <path
   inkscape:connector-curvature="0"
   d="m 710.5,492.5 v 0.8 c 0,1 -0.1,2.2 -0.1,3.2 0,1.8 -0.2,3.8 -0.3,5.8 -0.4,4 -0.9,8 -1.9,12.2 -1.8,8.2 -5,16.8 -9.6,24.5 -4.5,7.7 -10.2,14.5 -16.2,20 -5.9,5.5 -11.9,9.7 -17.8,13.3 -11.4,7.1 -21.8,11.6 -31,15.6 -9.2,4 -17.4,7.4 -24.2,10.7 -6.9,3.3 -12.5,6.6 -16.7,9.8 -4.3,3.1 -7.2,6.2 -9.4,9 -2.1,2.8 -3.4,5.4 -4.5,8.4 -2.1,5.8 -3.1,12.8 -3.2,19.3 0,2.4 0,4.7 0.1,6.8 h -22.4 c -2.4,-21.1 -0.6,-62.6 45.4,-78.8 62.5,-22 126.7,-64.5 91.1,-138.1 2,2.3 3.9,4.7 5.6,7.4 5.1,7.3 9,15.6 11.4,24 1.2,4.2 2.1,8.3 2.6,12.5 0.3,2 0.6,4 0.7,6 0.1,1 0.1,2 0.3,2.9 v 1.5 0.4 0.8 0.4 l 0.1,1 v 0.6"
   style="opacity:1;fill:#456d6f;fill-opacity:1;fill-rule:nonzero;stroke:none;stroke-width:0.1333;stop-opacity:1"
   id="path156" />

  </g>

</svg>
